<?xml version="1.0" encoding="utf-8"?>
<!-- Generator: Adobe Illustrator 16.0.0, SVG Export Plug-In . SVG Version: 6.00 Build 0)  -->
<!DOCTYPE svg PUBLIC "-//W3C//DTD SVG 1.1//EN" "http://www.w3.org/Graphics/SVG/1.1/DTD/svg11.dtd">
<svg version="1.1" xmlns="http://www.w3.org/2000/svg" xmlns:xlink="http://www.w3.org/1999/xlink" x="0px" y="0px" width="512px"
	 height="320px" viewBox="0 0 512 320" enable-background="new 0 0 512 320" xml:space="preserve">
<g id="Layer_1">
	<g>
		<g>
			<g>
				<path fill="#2E3192" d="M182.352,39.03c-1.91,9.733-3.819,19.467-5.729,29.2c-1.573,8.016,2.159,16.164,10.477,18.452
					c7.43,2.043,16.876-2.449,18.452-10.477c1.91-9.733,3.818-19.467,5.729-29.2c1.573-8.016-2.159-16.164-10.477-18.452
					C193.374,26.509,183.928,31.002,182.352,39.03L182.352,39.03z"/>
			</g>
		</g>
		<g>
			<g>
				<path fill="#2E3192" d="M195.075,57.753c-9.734-1.909-19.468-3.819-29.202-5.729c-8.016-1.573-16.164,2.159-18.452,10.477
					c-2.043,7.43,2.449,16.876,10.477,18.452c9.734,1.91,19.468,3.82,29.202,5.729c8.016,1.572,16.164-2.158,18.452-10.477
					C207.595,68.775,203.103,59.328,195.075,57.753L195.075,57.753z"/>
			</g>
		</g>
		<g>
			<path d="M201.866,193.351h-4.4c-8.417,0-16.643-0.574-25.06-2.296c-4.4-0.956-8.8-2.295-12.435-4.974
				c-4.974-3.635-7.461-8.417-8.035-14.538v-1.148c0-1.339-0.574-1.912-1.913-2.104c-1.53-0.191-3.252-0.574-4.974-0.957
				c-8.035-2.678-12.817-9.183-13.008-17.6c0-6.695,1.722-12.625,4.4-18.556c3.252-7.46,8.035-14.156,13.582-20.277
				c4.209-4.783,8.609-9.183,13.774-13.009c2.104-1.53,4.208-2.869,6.504-4.017c1.913-0.765,3.826-1.148,5.739-1.148h1.147
				c3.826,0.383,6.887,3.061,7.843,6.504c0.191,0.574,0.191,1.148,0.191,1.53c0,2.678-1.722,4.974-4.4,4.974
				c-0.382,0-0.765-0.191-1.148-0.191c-0.574,0-0.956-0.191-1.53-0.191c-2.487,0-4.4,1.148-6.504,2.678
				c-7.461,5.547-13.774,12.243-19.704,19.704c-3.252,4.018-6.122,8.417-8.417,13.2c-1.53,3.443-2.87,6.887-2.87,10.713v0.574
				c0,4.208,2.104,7.078,5.93,9.183c0.383,0.191,0.957,0.382,1.531,0.573c1.53,0.573,2.487,0.956,3.061,0.956
				c1.339,0,1.722-1.147,2.487-3.634c2.487-7.46,6.696-13.773,11.478-19.895c10.904-13.583,24.295-24.295,39.025-33.478
				c9.948-6.122,20.469-11.287,31.565-14.73c6.504-1.913,13.008-3.443,19.703-3.443c4.592,0,8.991,0.383,13.009,2.487
				c4.974,2.487,7.461,6.504,7.461,11.478c0,1.339-0.191,2.87-0.574,4.4c-1.339,4.4-4.018,7.843-7.078,11.287
				c-4.399,4.974-9.756,9.183-15.304,13.2c-22.765,16.069-47.442,27.738-74.224,35.008c-4.591,1.147-9.374,1.913-14.156,2.679
				c-1.722,0.191-1.913,0.382-2.104,2.295v0.574c0,3.635,1.53,6.504,4.783,8.226c3.635,1.722,7.46,2.679,11.287,3.061
				c4.208,0.574,8.417,0.957,12.817,0.957c1.913,0,3.826-0.191,5.739-0.191c8.226,0,16.452,0.191,24.677,0.765
				c8.035,0.574,16.069,1.531,23.721,3.444c3.443,0.956,6.887,1.912,10.139,3.825c3.443,1.913,5.931,4.592,6.695,8.608
				c0.191,0.574,0.191,1.34,0.191,1.913c0,2.487-0.765,4.783-1.913,7.078c-2.104,3.635-5.165,6.695-8.226,9.374
				c-5.93,4.974-12.435,8.8-19.321,12.052c-20.852,10.33-42.851,16.452-65.616,20.277c-6.695,1.148-13.391,1.913-20.086,2.296
				c-1.913,0.191-3.634,0.191-5.547,0.191c-3.635,0-7.27-0.191-10.904-0.766c-2.487-0.382-4.974-0.956-7.269-2.486
				c-2.678-1.722-3.826-4.018-3.826-6.695c0-1.148,0.191-2.296,0.574-3.443c0.957-2.679,2.678-4.783,4.591-6.696
				c4.4-4.399,9.374-7.651,14.73-10.521c11.861-6.695,24.678-10.521,37.877-13.199c9.374-1.722,18.747-3.252,28.121-4.209
				c2.678-0.19,5.356-0.382,8.034-0.382c2.104,0,4.018,0,5.931,0.382c0.957,0,2.104,0.191,2.869,0.574
				c0.574,0.383,0.957,0.957,0.957,1.722v0.383c0,0.765-0.765,1.147-1.53,1.339h-1.339c-2.104-0.383-4.209-0.574-6.313-0.574
				c-3.252,0-6.504,0.383-9.756,0.766c-10.139,0.957-20.469,2.679-30.417,5.165c-15.113,3.635-29.269,9.374-41.704,18.747
				c-2.104,1.722-4.208,3.635-5.739,5.931c-0.957,1.339-1.339,2.487-1.339,3.443c0,1.53,1.339,2.487,4.017,3.061
				c2.487,0.574,4.974,0.766,7.46,0.766c1.722,0,3.443-0.191,5.166-0.191c13.391-1.147,26.782-3.826,39.79-7.27
				c16.643-4.399,32.903-10.33,48.399-17.982c4.974-2.486,9.947-5.547,14.539-8.99c2.678-2.104,5.165-4.4,7.077-7.27
				c0.766-1.148,1.148-2.104,1.148-3.062c0-1.147-0.766-2.104-2.679-3.252c-3.635-2.295-7.843-3.061-12.052-3.826
				c-7.843-1.339-15.877-1.53-23.721-1.53C210.283,193.159,206.075,193.159,201.866,193.351z M172.598,161.978
				c8.608-1.722,17.025-4.208,25.251-7.27c17.6-6.695,34.243-15.112,49.929-25.634c5.739-3.826,11.095-8.035,15.687-13.391
				c2.486-2.678,4.782-5.739,5.739-9.374c0.382-1.148,0.573-2.296,0.573-3.252c0-3.252-1.913-5.166-5.93-6.122
				c-1.722-0.574-3.635-0.765-5.356-0.765c-1.913,0-3.635,0.191-5.548,0.574c-7.652,0.957-14.922,3.826-22,7.078
				c-19.129,8.991-35.581,21.234-50.12,36.538c-4.782,4.782-8.991,10.139-12.817,15.878c-1.148,2.104-2.487,4.208-3.443,6.886
				C167.624,162.742,170.11,162.36,172.598,161.978z"/>
			<path d="M294.459,206.741c-1.913,2.487-4.018,4.592-6.313,6.696c-0.574,0.573-1.148,1.147-1.913,1.53
				c-1.53,1.147-3.061,1.722-4.591,1.722c-2.104,0-4.209-1.339-5.739-4.018c-1.53-2.869-2.296-5.931-2.487-9.183v-2.869
				c0-4.782,0.766-9.374,2.296-13.965c0.765-2.104,1.722-4.018,3.252-5.739s3.635-2.678,5.548-2.678s3.826,0.956,4.974,2.678
				c0.766,0.957,1.147,2.296,1.147,3.443c0,0.957-0.382,1.913-0.956,2.87c-3.826,5.356-5.548,11.669-7.078,17.981
				c-0.191,0.957-0.191,1.913-0.191,2.87v1.147c0.191,0.957,0.383,1.339,0.957,1.339c0.19,0,0.573-0.191,0.956-0.382
				c0.574-0.574,1.339-1.148,1.913-1.723c5.548-5.355,10.139-11.286,14.156-17.79c0.573-0.957,0.956-1.913,1.147-3.062
				c0.383-1.53,0.957-3.252,1.913-4.591c0.956-1.53,2.296-2.487,3.826-2.487c0.574,0,0.956,0,1.53,0.191
				c1.53,0.574,2.487,2.104,2.487,4.018v0.957c-0.383,3.443-1.148,6.695-1.531,9.947c-0.382,2.295-0.765,4.782-0.765,7.27
				c0,1.339,0.191,2.678,0.383,4.017c0.191,0.383,0.191,0.766,0.382,1.148c0.766,2.678,1.913,3.826,3.635,3.826
				c0.957,0,1.913-0.191,3.062-0.766c5.738-2.679,10.521-6.887,14.538-11.669c0.957-1.148,1.722-2.487,2.679-3.635
				c0.383-0.383,0.383-0.766,0.383-1.148c0-0.382,0-0.765-0.383-1.147c-1.53-2.296-2.104-4.782-2.104-7.27
				c0-3.635,1.53-7.27,4.399-9.947l0.766-0.766c1.53-0.956,2.869-1.722,4.4-1.722c0.956,0,1.722,0.191,2.678,0.766
				c2.296,1.339,2.869,3.443,2.869,5.93v0.957c-0.191,3.061-1.339,5.931-2.678,8.608c-0.383,0.956-0.574,1.53-0.574,1.913
				c0,0.765,0.574,0.765,2.296,0.765c2.296,0,4.399,0.383,6.695,0.383c0.766,0,1.722,0,2.487-0.191h1.147
				c0.766,0.191,1.339,0.766,1.339,1.53v0.383c0,0.574-0.383,0.957-0.765,1.339c-0.766,0.574-1.34,0.574-2.104,0.766
				c-1.722,0.191-3.443,0.383-4.974,0.383s-2.87-0.191-4.209-0.383h-0.956c-0.574-0.191-0.957-0.191-1.53-0.191
				c-2.104,0-3.635,0.957-4.975,3.061c-4.399,6.505-9.564,12.053-16.068,16.261c-1.913,1.147-3.635,2.104-5.739,2.679
				c-0.957,0.19-1.913,0.382-2.87,0.382c-3.634,0-6.695-1.53-8.99-4.591c-2.104-3.061-3.253-6.313-3.635-9.947
				c-0.191-1.34-0.383-2.679-0.766-4.592C297.902,202.533,296.181,204.638,294.459,206.741z M337.311,187.038
				c0,0.765,0,1.339,0.382,2.104c1.531-2.487,2.296-4.975,2.679-8.035C338.267,182.829,337.311,184.934,337.311,187.038z"/>
			<path d="M370.79,205.211c-2.104,2.296-4.208,4.4-6.504,6.505c-1.147,1.147-2.487,2.295-4.209,2.869
				c-0.765,0.191-1.339,0.383-1.913,0.383c-2.104,0-4.017-1.148-4.974-3.061c-0.765-1.34-1.147-2.87-1.147-4.209v-2.296
				c0-9.373,3.443-17.6,9.756-24.486c2.296-2.486,4.975-4.399,8.227-5.356c1.53-0.573,3.252-0.765,4.782-0.765
				c3.826,0,7.652,1.722,10.713,4.974c1.339,1.339,2.104,2.869,2.104,4.399c0,1.148-0.383,2.296-0.957,3.635
				c-2.486,5.931-4.782,12.052-5.93,18.557c-0.383,1.53-0.574,2.869-0.574,4.399c0,0.766,0.191,1.722,0.191,2.487
				c0.191,1.339,0.765,2.104,1.53,2.104c0.574,0,1.147-0.191,1.913-0.766c2.486-1.722,4.591-4.018,6.695-6.504
				c3.635-4.209,7.078-8.608,10.713-12.817c0.383-0.574,0.956-1.147,1.53-1.722c0.383-0.383,0.766-0.574,1.147-0.574
				c0.383,0,0.574,0.191,0.957,0.383c0.573,0.383,0.765,0.957,0.765,1.53c0,0.191,0,0.574-0.191,0.766
				c-0.19,0.573-0.573,1.339-1.147,1.913c-4.782,5.738-9.374,11.86-14.348,17.6c-1.339,1.53-2.678,3.061-4.399,4.017
				c-1.339,0.766-2.87,1.148-4.018,1.148c-2.296,0-4.399-1.34-5.739-4.018c-0.956-2.104-1.339-4.209-1.53-6.313
				c0-3.062,0-5.931,0.574-8.8c-0.191,0-0.383-0.191-0.574-0.191C373.086,202.342,371.938,203.681,370.79,205.211z M362.756,205.785
				c5.548-5.165,10.33-11.096,14.729-17.6c0.191-0.574,0.383-0.956,0.383-1.147c0-0.383-0.383-0.574-1.339-0.574
				c-2.869,0-5.356,1.147-7.461,3.061c-4.591,4.209-7.27,9.565-8.991,15.495c0,0.383-0.19,0.766-0.19,1.148s0.19,0.765,0.382,1.147
				C361.417,207.124,361.99,206.359,362.756,205.785z"/>
			<path d="M409.817,214.202c4.208-10.139,8.99-19.704,15.495-28.503c1.339-1.913,2.869-3.635,4.591-5.356
				c1.339-1.148,2.869-2.296,4.591-3.062c0.957-0.382,1.913-0.573,2.87-0.573c1.913,0,3.635,0.765,4.974,2.486
				c1.53,1.722,2.104,3.826,2.296,6.122c0,2.486,0,5.165-0.766,7.843c0.191,0,0.383,0.191,0.574,0.191
				c0.765,0,1.147-0.383,1.722-0.574c1.722-0.382,3.443-1.147,5.356-1.147h1.913c1.147,0.191,2.104,0.957,2.104,1.913v0.191
				c-0.191,1.147-1.147,1.53-2.104,1.53h-0.574c-3.061,0-5.739,1.147-8.417,2.104c-1.722,0.573-2.679,1.53-3.443,3.061
				c-4.4,7.652-10.713,13.582-18.557,17.791c-1.913,0.956-4.017,1.913-6.121,1.913c-0.766,0-1.722-0.191-2.487-0.383h-0.383
				c-0.765,0-0.956,0.574-1.339,1.147c-0.573,1.722-1.339,3.443-1.913,4.975c-5.356,15.877-9.373,31.946-11.669,48.59
				c-0.574,3.826-1.339,7.843-2.104,11.669c-0.191,1.147-0.574,2.296-0.765,3.252c-0.574,1.148-1.34,1.913-2.679,2.104
				c-1.339,0-2.296-0.766-2.678-1.913c-0.766-1.53-0.957-3.252-1.148-4.974c-0.573-4.4-0.765-8.608-0.765-13.009
				c0-2.104,0.191-4.399,0.191-6.504c0.382-6.504,0.956-13.199,1.913-19.704c3.061-20.277,8.034-40.173,14.155-59.685
				c0.574-1.913,1.34-4.018,2.296-5.739c1.148-2.104,3.061-3.061,4.974-3.061c0.957,0,2.104,0.19,3.062,0.956
				c1.53,1.147,2.486,2.678,2.486,4.209c0,0.573-0.191,1.147-0.383,1.722c-0.573,2.869-1.339,5.547-2.295,8.226
				c-2.87,10.139-5.739,20.086-8.227,30.607C407.713,219.75,408.669,216.881,409.817,214.202z M421.486,204.829
				c2.678-1.722,5.356-3.635,8.226-4.975c2.296-1.147,3.826-2.869,4.782-5.165c0.574-1.339,0.957-2.678,1.531-4.208
				c0.573-1.53,0.765-3.061,0.765-4.782c-0.191-0.766,0.191-1.723-0.765-2.104l-0.383-0.191c-0.574,0-1.339,0.573-1.722,0.956
				c-1.339,0.957-2.487,1.913-3.443,3.062c-4.4,5.165-7.844,10.903-10.904,17.025c-0.191,0.191-0.383,0.573-0.383,0.956v0.574
				C420.147,205.785,420.721,205.211,421.486,204.829z M426.46,206.359c-2.678,1.913-5.356,3.443-7.27,5.93
				C421.869,211.333,425.313,208.654,426.46,206.359z"/>
		</g>
		<g>
			<path stroke="#2E3192" stroke-width="4" stroke-miterlimit="10" d="M191.066,263.022c8.968,0.598,14.435,10.979,9.694,16.806
				c-10.856,13.348-37.515,15.748-56.936,15.748c-46.079,0-80.703-12.624-103.874-37.872
				c-23.175-25.248-34.759-56.089-34.759-92.523c0-38.175,12.925-71.091,38.777-98.751c25.849-27.658,60.774-45.296,104.277-41.49
				c13.062,1.143,35.032,8.345,48.57,17.754l-16.928,25.055c-15.26-11.245-28.227-12.672-40.283-12.672
				c-32.417,0-56.995,10.046-73.736,30.138c-16.746,20.092-25.115,44.673-25.115,73.737c0,29.603,9.644,54.985,28.932,76.148
				c19.289,21.165,45.941,31.744,79.966,31.744C162.643,266.845,188.375,262.844,191.066,263.022z"/>
		</g>
		<g>
			<g>
				<path d="M185.968,39.703c-1.911,9.733-3.819,19.467-5.729,29.2c-1.18,6.012,1.619,12.123,7.857,13.839
					c5.573,1.533,12.657-1.836,13.839-7.857c1.91-9.733,3.818-19.467,5.729-29.2c1.18-6.012-1.619-12.123-7.857-13.839
					C194.234,30.313,187.15,33.682,185.968,39.703L185.968,39.703z"/>
			</g>
		</g>
		<g>
			<g>
				<path d="M194.078,61.045c-9.734-1.909-19.468-3.819-29.202-5.729c-6.012-1.18-12.123,1.619-13.839,7.857
					c-1.533,5.573,1.836,12.657,7.857,13.839c9.734,1.91,19.468,3.82,29.202,5.729c6.012,1.179,12.123-1.619,13.839-7.857
					C203.468,69.312,200.099,62.227,194.078,61.045L194.078,61.045z"/>
			</g>
		</g>
		<g>
			<g>
				<path fill="#010101" d="M383.17,86.029h-74.438v51.181c0,0,24.272,21.506,74.438,21.506c50.166,0,74.442-21.506,74.442-21.506
					V86.029H383.17z"/>
			</g>
			<g>
				<path fill="#010101" d="M491.762,124.937c0-1.743-0.963-3.255-2.39-4.042V72.867h-4.448v48.028
					c-1.424,0.786-2.392,2.299-2.392,4.042c0,1.214,0.477,2.317,1.244,3.139v21.468h6.748v-21.468
					C491.29,127.254,491.762,126.151,491.762,124.937z"/>
			</g>
			<g>
				<polygon fill="#010101" points="263.087,72.867 383.17,119.167 503.255,72.867 383.17,26.569 				"/>
				<path fill="#2E3192" stroke="#2E3192" stroke-miterlimit="10" d="M506.365,71.945L384.238,24.859
					c-0.068-0.104-0.156-0.192-0.262-0.265c-0.231-0.162-0.529-0.209-0.807-0.14c-0.274-0.069-0.571-0.021-0.807,0.14
					c-0.104,0.073-0.19,0.161-0.258,0.265L259.978,71.945c-0.382,0.146-0.636,0.514-0.636,0.922c0,0.408,0.254,0.78,0.636,0.924
					l122.128,47.084c0.067,0.105,0.154,0.19,0.258,0.267c0.168,0.114,0.363,0.173,0.562,0.173c0.082,0,0.167-0.012,0.245-0.037
					c0.277,0.078,0.575,0.025,0.807-0.136c0.105-0.076,0.193-0.162,0.262-0.267l122.127-47.084c0.384-0.144,0.635-0.516,0.635-0.924
					C507,72.459,506.749,72.091,506.365,71.945z M383.419,120.133v0.188l-0.249-0.094l-0.245,0.094v-0.188L260.332,72.867
					l122.593-47.266v-0.189l0.245,0.098l0.249-0.098v0.189l122.59,47.266L383.419,120.133z"/>
				<path fill="#2E3192" stroke="#2E3192" stroke-miterlimit="10" d="M383.419,25.412l-0.249,0.098l-0.245-0.098v0.189
					L260.332,72.867l122.593,47.266v0.188l0.245-0.094l0.249,0.094v-0.188l122.59-47.266l-122.59-47.266V25.412z M503.255,72.867
					L383.17,119.167L263.087,72.867L383.17,26.569L503.255,72.867z"/>
			</g>
		</g>
		
			<sodipodi:namedview  inkscape:cy="-76.193978" inkscape:zoom="2" showguides="false" borderopacity="1.0" showgrid="false" inkscape:cx="179.96342" bordercolor="#666666" pagecolor="#ffffff" id="base" inkscape:pageopacity="0.0" inkscape:window-maximized="0" inkscape:window-height="645" inkscape:window-y="0" inkscape:current-layer="layer7" inkscape:grid-bbox="false" inkscape:guide-points="false" inkscape:window-x="0" inkscape:guide-bbox="false" inkscape:window-width="674" inkscape:pageshadow="2" inkscape:grid-points="false">
			<sodipodi:guide  orientation="horizontal" position="-123.7975,-898.17356" id="guide6719"></sodipodi:guide>
			<sodipodi:guide  orientation="horizontal" position="-123.7975,-988.15289" id="guide6720"></sodipodi:guide>
			<sodipodi:guide  orientation="horizontal" position="-123.7975,-926.45783" id="guide6721"></sodipodi:guide>
			<sodipodi:guide  orientation="horizontal" position="-123.7975,-969.06101" id="guide6722"></sodipodi:guide>
			<sodipodi:guide  orientation="vertical" position="833.4483,-487.16774" id="guide8591"></sodipodi:guide>
		</sodipodi:namedview>
	</g>
</g>
<g id="Layer_2">
	<g>
		<g>
			<path fill="#010101" d="M826.021,163.347H703.359v84.336c0,0,39.998,35.438,122.661,35.438c82.667,0,122.67-35.438,122.67-35.438
				v-84.336H826.021z"/>
		</g>
		<g>
			<path fill="#010101" d="M1004.963,227.459c0-2.872-1.586-5.363-3.937-6.66v-79.142h-7.331v79.142
				c-2.347,1.297-3.941,3.788-3.941,6.66c0,2.002,0.786,3.82,2.051,5.174v35.379h11.119v-35.379
				C1004.186,231.279,1004.963,229.461,1004.963,227.459z"/>
		</g>
		<g>
			<polygon fill="#010101" points="628.143,141.657 826.021,217.951 1023.903,141.657 826.021,65.366 			"/>
			<path fill="#2E3192" stroke="#2E3192" stroke-width="2" stroke-miterlimit="10" d="M1029.027,140.137l-201.245-77.59
				c-0.113-0.172-0.258-0.317-0.432-0.437c-0.382-0.267-0.873-0.345-1.33-0.231c-0.452-0.114-0.941-0.035-1.329,0.231
				c-0.17,0.12-0.313,0.264-0.424,0.437l-201.248,77.59c-0.63,0.241-1.048,0.847-1.048,1.52c0,0.672,0.418,1.285,1.048,1.523
				l201.248,77.588c0.11,0.171,0.254,0.313,0.424,0.438c0.277,0.188,0.599,0.284,0.926,0.284c0.136,0,0.276-0.018,0.403-0.06
				c0.457,0.129,0.948,0.042,1.33-0.225c0.174-0.126,0.318-0.268,0.432-0.438l201.245-77.588c0.633-0.238,1.047-0.851,1.047-1.523
				C1030.074,140.984,1029.66,140.378,1029.027,140.137z M826.431,219.545v0.308l-0.41-0.155l-0.403,0.155v-0.308l-202.014-77.888
				L825.617,63.77v-0.313l0.403,0.162l0.41-0.162v0.313l202.01,77.887L826.431,219.545z"/>
			<path fill="#2E3192" stroke="#2E3192" stroke-width="2" stroke-miterlimit="10" d="M826.431,63.458l-0.41,0.162l-0.403-0.162
				v0.313l-202.014,77.887l202.014,77.888v0.308l0.403-0.155l0.41,0.155v-0.308l202.01-77.888L826.431,63.77V63.458z
				 M1023.903,141.657l-197.883,76.294l-197.878-76.294l197.878-76.291L1023.903,141.657z"/>
		</g>
	</g>
	<g>
		<g>
			<path fill="#2E3192" d="M839.996-41.453c-3.148,16.039-6.292,32.078-9.438,48.116c-2.358,12.024,3.237,24.246,15.715,27.678
				c11.145,3.065,25.315-3.673,27.678-15.715c3.146-16.039,6.29-32.078,9.438-48.116c2.36-12.023-3.238-24.246-15.715-27.678
				C856.527-60.233,842.36-53.494,839.996-41.453L839.996-41.453z"/>
		</g>
	</g>
	<g>
		<g>
			<path fill="#2E3192" d="M858.235-9.051c-16.04-3.146-32.08-6.293-48.12-9.441c-12.023-2.359-24.246,3.238-27.678,15.715
				c-3.065,11.146,3.673,25.314,15.715,27.678c16.04,3.148,32.08,6.295,48.12,9.441c12.024,2.358,24.245-3.237,27.678-15.715
				C877.016,7.482,870.277-6.689,858.235-9.051L858.235-9.051z"/>
		</g>
	</g>
	<g>
		<path stroke="#2E3192" stroke-width="6" stroke-miterlimit="10" d="M852.219,327.063c14.776,0.983,23.784,18.089,15.973,27.693
			c-17.889,21.995-61.817,25.95-93.82,25.95c-75.931,0-132.985-20.804-171.167-62.409c-38.188-41.604-57.279-92.424-57.279-152.462
			c0-62.907,21.3-117.148,63.899-162.728C652.42-42.469,709.97-71.534,781.657-65.262c21.523,1.883,57.727,13.751,80.035,29.257
			L833.799,5.281c-25.146-18.529-46.514-20.881-66.381-20.881c-53.416,0-93.917,16.555-121.506,49.663
			c-27.594,33.109-41.386,73.615-41.386,121.508c0,48.781,15.892,90.607,47.677,125.479c31.785,34.878,75.702,52.31,131.771,52.31
			C805.38,333.359,847.782,326.769,852.219,327.063z"/>
	</g>
	<g>
		<g>
			<path d="M844.817-40.657c-3.148,16.039-6.292,32.078-9.438,48.116c-1.834,9.352,2.518,18.858,12.223,21.527
				c8.668,2.384,19.689-2.857,21.527-12.223c3.146-16.039,6.29-32.078,9.438-48.116c1.836-9.352-2.519-18.858-12.223-21.527
				C857.676-55.264,846.656-50.023,844.817-40.657L844.817-40.657z"/>
		</g>
	</g>
	<g>
		<g>
			<path d="M856.906-4.764c-16.04-3.146-32.08-6.292-48.12-9.44c-9.352-1.835-18.857,2.519-21.527,12.223
				c-2.385,8.669,2.856,19.689,12.223,21.527c16.04,3.147,32.08,6.294,48.12,9.44c9.353,1.834,18.857-2.518,21.527-12.223
				C871.513,8.096,866.272-2.927,856.906-4.764L856.906-4.764z"/>
		</g>
	</g>
	<g>
	</g>
	<g>
	</g>
	<g>
	</g>
	<g>
	</g>
	<g>
	</g>
	<g>
	</g>
</g>
</svg>
