<?xml version="1.0" standalone="no"?>
<!DOCTYPE svg PUBLIC "-//W3C//DTD SVG 20010904//EN"
 "http://www.w3.org/TR/2001/REC-SVG-20010904/DTD/svg10.dtd">
<svg version="1.0" xmlns="http://www.w3.org/2000/svg"
 width="2048.000000pt" height="2048.000000pt" viewBox="0 0 2048.000000 2048.000000"
 preserveAspectRatio="xMidYMid meet">
<metadata>
Created by potrace 1.14, written by Peter Selinger 2001-2017
</metadata>
<g transform="translate(0.000000,2048.000000) scale(0.100000,-0.100000)"
fill="#000000" stroke="none">
<path d="M8997 19403 c-1 0 -76 -4 -167 -8 -91 -4 -181 -8 -200 -10 -19 -2
-73 -6 -120 -10 -47 -3 -98 -8 -115 -10 -16 -2 -75 -9 -130 -15 -55 -6 -111
-13 -125 -15 -14 -2 -49 -7 -79 -10 -30 -4 -63 -9 -75 -11 -12 -2 -41 -7 -66
-10 -25 -3 -52 -7 -60 -9 -8 -2 -31 -7 -50 -10 -19 -3 -62 -10 -95 -16 -33 -6
-71 -13 -85 -15 -14 -3 -33 -7 -42 -10 -9 -3 -27 -7 -40 -9 -90 -18 -268 -59
-388 -91 -8 -2 -40 -10 -70 -18 -325 -81 -872 -279 -1199 -432 -51 -24 -95
-44 -97 -44 -14 0 -448 -224 -516 -267 -21 -12 -40 -23 -43 -23 -6 0 -211
-121 -280 -165 -27 -17 -81 -51 -120 -76 -147 -93 -505 -343 -595 -416 -8 -6
-73 -58 -145 -114 -71 -56 -132 -105 -135 -108 -3 -3 -48 -42 -100 -86 -52
-44 -100 -84 -106 -90 -266 -236 -530 -493 -723 -701 -35 -38 -85 -91 -111
-119 -40 -43 -221 -250 -284 -325 -480 -569 -939 -1272 -1251 -1915 -83 -170
-145 -303 -145 -310 0 -2 -15 -36 -34 -77 -74 -161 -197 -481 -283 -738 -44
-134 -139 -444 -148 -484 -2 -12 -6 -30 -9 -41 -59 -232 -78 -306 -82 -335 -3
-19 -10 -43 -15 -52 -5 -10 -8 -18 -5 -18 2 0 -1 -19 -6 -42 -5 -24 -11 -52
-14 -63 -2 -11 -8 -42 -14 -70 -15 -73 -18 -87 -44 -240 -14 -77 -28 -158 -31
-180 -3 -23 -7 -50 -9 -61 -2 -12 -7 -45 -10 -75 -4 -30 -11 -85 -16 -124 -15
-111 -27 -219 -35 -310 -3 -33 -8 -80 -10 -105 -2 -25 -7 -85 -10 -135 -3 -49
-8 -110 -10 -135 -21 -233 -21 -1082 0 -1295 2 -22 7 -85 11 -140 9 -145 11
-164 18 -230 4 -33 9 -82 12 -110 2 -27 7 -66 9 -85 2 -19 7 -57 10 -85 10
-82 30 -226 45 -315 5 -30 12 -77 16 -103 5 -39 93 -482 108 -547 5 -20 67
-262 70 -275 2 -5 6 -23 10 -40 66 -260 225 -729 351 -1034 106 -257 293 -649
395 -827 26 -45 49 -88 53 -97 13 -34 228 -384 330 -537 146 -218 335 -477
460 -630 66 -81 153 -186 157 -190 3 -3 34 -39 69 -80 201 -236 504 -544 726
-737 345 -298 773 -603 1127 -801 519 -292 999 -500 1578 -687 293 -95 770
-217 1055 -271 11 -2 31 -6 45 -9 45 -10 74 -15 185 -35 61 -10 126 -22 145
-25 19 -4 49 -8 65 -11 30 -3 96 -14 126 -19 9 -2 40 -6 70 -10 30 -3 61 -8
69 -10 8 -2 44 -7 80 -10 36 -3 72 -8 80 -10 8 -2 44 -7 80 -10 36 -4 76 -8
90 -10 14 -2 57 -7 95 -10 39 -3 83 -8 99 -10 16 -2 65 -6 110 -10 44 -4 97
-8 116 -10 19 -2 87 -7 150 -10 63 -4 133 -9 155 -10 383 -26 1370 -26 1685 0
25 2 89 6 144 10 54 3 112 8 130 10 17 2 67 7 111 10 44 4 94 9 110 11 17 2
55 6 85 9 52 5 235 31 290 40 14 3 45 7 70 11 25 3 77 12 115 20 39 7 88 16
110 20 22 3 78 15 125 25 47 11 96 22 110 25 26 5 136 34 230 60 539 149 987
385 1274 671 144 143 205 234 240 354 95 324 -66 713 -382 928 -195 132 -396
177 -647 146 -22 -2 -67 -7 -100 -10 -63 -6 -105 -11 -170 -20 -61 -8 -104
-13 -170 -20 -33 -4 -71 -8 -85 -11 -14 -2 -53 -6 -86 -9 -34 -3 -70 -7 -81
-9 -19 -4 -103 -15 -163 -21 -87 -9 -157 -17 -178 -20 -13 -2 -53 -7 -90 -11
-37 -3 -76 -8 -87 -10 -11 -2 -54 -6 -95 -10 -41 -3 -86 -7 -100 -9 -14 -2
-52 -7 -85 -10 -33 -3 -76 -8 -95 -10 -19 -2 -73 -7 -120 -11 -47 -3 -92 -8
-101 -9 -9 -2 -63 -6 -120 -10 -57 -3 -122 -8 -144 -10 -258 -23 -753 -24
-1090 0 -246 17 -423 32 -463 39 -9 2 -46 7 -82 11 -114 12 -159 18 -320 45
-63 11 -133 22 -155 25 -22 3 -46 8 -54 11 -8 2 -30 7 -50 10 -20 3 -94 19
-166 35 -71 17 -139 32 -149 34 -10 3 -55 14 -100 26 -45 11 -85 22 -91 23
-179 44 -656 207 -822 281 -18 8 -48 21 -65 29 -222 94 -545 262 -753 389 -34
21 -280 181 -290 189 -14 11 -184 135 -214 156 -13 9 -28 22 -35 27 -6 6 -31
26 -56 45 -43 34 -81 64 -104 85 -6 6 -40 35 -76 65 -133 113 -379 352 -505
491 -33 36 -78 85 -101 110 -275 300 -684 872 -887 1240 -13 24 -39 70 -56
102 -115 209 -269 541 -356 767 -26 69 -53 139 -60 155 -14 34 -149 453 -161
500 -4 17 -8 35 -10 40 -60 235 -96 387 -110 465 -2 14 -9 45 -14 70 -11 50
-39 216 -46 270 -2 19 -6 46 -9 59 -2 13 -7 45 -11 70 -3 25 -8 57 -10 71 -2
14 -6 54 -10 90 -3 36 -7 75 -9 86 -2 12 -6 61 -10 110 -4 49 -9 105 -11 124
-11 107 -19 362 -19 635 0 328 6 475 29 780 8 95 23 244 31 295 2 14 7 50 10
80 3 30 8 66 10 80 2 14 7 43 10 65 2 22 7 52 10 68 3 15 9 53 15 85 13 76 19
111 25 147 5 24 44 211 60 289 65 304 255 901 360 1131 8 16 25 57 38 90 57
137 201 432 278 568 22 38 39 71 39 73 0 3 16 30 35 60 19 30 35 56 35 58 0 8
136 224 219 346 82 123 259 365 310 426 14 17 33 40 41 50 149 189 402 457
580 614 47 41 87 77 90 80 4 5 71 59 202 165 50 40 276 199 344 241 43 27 81
52 82 56 2 5 7 8 11 8 4 0 63 32 132 72 376 216 816 397 1284 527 192 54 595
142 708 156 23 3 53 7 67 10 58 11 241 35 375 49 121 13 144 15 215 21 397 32
1037 37 1270 10 19 -2 62 -6 95 -10 82 -8 149 -17 153 -20 2 -1 -17 -31 -41
-66 -111 -160 -159 -319 -157 -519 0 -52 2 -102 4 -110 1 -8 6 -33 10 -55 55
-294 260 -561 509 -662 53 -21 217 -61 314 -76 17 -3 67 -12 110 -21 108 -22
520 -104 563 -111 19 -3 53 -10 75 -15 22 -5 54 -11 70 -14 38 -7 446 -86 670
-131 94 -19 186 -37 205 -40 19 -3 51 -10 70 -15 281 -73 649 26 860 232 78
76 103 108 154 195 37 64 77 188 93 288 3 24 41 222 59 309 2 12 6 33 9 48 3
14 28 142 56 285 28 142 53 267 55 278 1 11 5 31 8 45 8 37 25 121 30 150 4
23 65 333 121 617 14 67 27 137 31 155 12 65 11 258 -1 337 -65 403 -358 698
-745 750 -58 7 -232 6 -270 -2 -8 -2 -31 -7 -50 -11 -170 -37 -334 -124 -461
-244 l-67 -62 -78 36 c-195 90 -588 254 -609 254 -4 0 -21 6 -38 14 -45 20
-381 137 -407 141 -4 1 -87 26 -260 80 -52 16 -403 105 -440 111 -14 3 -65 13
-115 24 -49 10 -106 21 -125 24 -19 3 -73 12 -120 20 -47 8 -112 18 -145 21
-33 4 -71 8 -85 10 -14 2 -68 7 -120 10 -52 4 -111 8 -130 10 -102 11 -794 27
-803 18z"/>
<path d="M11689 14188 c-19 -12 -83 -40 -144 -63 -367 -141 -598 -229 -650
-250 -111 -44 -510 -198 -550 -212 -33 -12 -348 -134 -655 -253 -223 -86 -713
-276 -765 -295 -81 -31 -935 -359 -960 -370 -11 -4 -24 -9 -30 -11 -5 -1 -98
-37 -205 -79 -107 -42 -260 -101 -339 -131 -138 -52 -336 -129 -411 -159 -19
-7 -93 -36 -165 -64 -71 -27 -182 -69 -245 -94 -63 -24 -137 -52 -165 -62 -27
-10 -54 -21 -60 -25 -5 -4 -39 -17 -75 -29 -36 -12 -78 -29 -95 -36 -16 -8
-86 -35 -155 -61 -69 -26 -144 -55 -167 -65 -23 -11 -45 -19 -49 -19 -3 0
-153 -57 -333 -126 -276 -107 -1142 -441 -1596 -616 -71 -28 -159 -61 -195
-74 -108 -41 -142 -90 -110 -161 21 -48 -30 -25 640 -283 289 -111 577 -222
640 -247 63 -25 138 -53 165 -63 28 -10 124 -48 215 -83 91 -35 273 -105 405
-156 132 -50 249 -96 260 -101 11 -5 76 -30 145 -56 69 -25 139 -52 155 -59
17 -7 98 -39 180 -70 83 -31 200 -76 260 -100 61 -24 134 -51 163 -61 49 -18
52 -21 53 -54 0 -19 1 -673 1 -1452 l1 -1418 29 -22 c16 -13 39 -31 51 -41 23
-19 159 -115 242 -170 315 -210 809 -454 1256 -620 298 -111 751 -251 949
-292 13 -3 57 -13 130 -30 41 -10 360 -75 390 -80 19 -3 46 -7 60 -10 14 -3
41 -7 60 -10 19 -3 42 -8 50 -10 8 -2 39 -7 69 -10 30 -4 63 -8 74 -11 11 -2
57 -8 101 -14 45 -6 92 -13 106 -15 14 -2 52 -6 85 -10 33 -3 71 -8 85 -10 14
-2 59 -6 100 -10 41 -3 89 -8 105 -10 17 -2 77 -6 135 -10 58 -4 121 -8 140
-10 243 -24 1104 -24 1381 0 24 2 89 6 144 10 55 3 118 8 140 11 50 5 111 11
195 20 36 3 72 7 80 9 8 2 44 6 80 10 79 8 352 49 470 70 47 8 99 17 115 20
17 3 86 17 155 31 69 14 136 28 149 30 14 3 28 7 31 9 4 2 20 6 36 9 71 13
333 81 489 127 617 182 1152 410 1618 688 71 42 136 81 145 86 48 28 226 152
292 203 l75 58 5 1454 5 1454 330 127 c182 70 341 131 355 137 14 5 61 23 105
40 44 17 134 51 200 77 66 25 156 60 200 77 44 16 89 34 100 39 54 24 490 189
498 189 3 0 5 -564 5 -1254 l0 -1255 -34 -23 c-113 -77 -155 -240 -95 -372 16
-35 34 -66 40 -70 8 -5 11 -202 11 -717 0 -560 3 -709 13 -710 6 0 107 -1 222
-2 l210 0 1 705 1 706 30 46 c91 137 55 326 -79 421 l-23 15 -1 1314 -1 1314
356 137 c695 268 766 296 790 308 48 24 65 79 42 134 -14 35 -47 54 -161 96
-130 48 -806 308 -850 327 -25 11 -124 49 -220 85 -96 37 -184 70 -195 75 -11
5 -198 78 -415 161 -217 84 -444 171 -505 194 -60 24 -211 81 -335 129 -124
47 -234 90 -245 95 -11 5 -58 24 -105 41 -47 18 -224 86 -395 152 -170 66
-325 125 -345 132 -19 7 -379 146 -800 308 -421 163 -832 322 -915 353 -82 32
-163 63 -180 70 -16 7 -86 34 -155 60 -69 26 -138 53 -155 60 -16 7 -145 57
-285 110 -140 54 -316 122 -390 150 -74 29 -229 89 -345 133 -1014 390 -1061
409 -1115 437 -56 28 -108 29 -151 3z"/>
</g>
</svg>
